<svg width="12" height="9" viewBox="0 0 12 9" fill="none" xmlns="http://www.w3.org/2000/svg">
<path d="M5.93019 1.99355C7.97004 1.99355 9.78923 3.13996 10.6773 4.95377C9.78923 6.76757 7.97542 7.91398 5.93019 7.91398C3.88495 7.91398 2.07115 6.76757 1.18309 4.95377C2.07115 3.13996 3.89033 1.99355 5.93019 1.99355ZM5.93019 0.917114C3.33919 0.917114 1.11242 2.46876 0.119303 4.69299C0.0452105 4.85893 0.0452105 5.0486 0.119303 5.21454C1.11242 7.43877 3.33919 8.99042 5.93019 8.99042C8.52118 8.99042 10.748 7.43877 11.7411 5.21454C11.8152 5.0486 11.8152 4.85893 11.7411 4.69299C10.748 2.46876 8.52118 0.917114 5.93019 0.917114ZM5.93019 3.60822C6.67293 3.60822 7.27574 4.21102 7.27574 4.95377C7.27574 5.69651 6.67293 6.29932 5.93019 6.29932C5.18744 6.29932 4.58464 5.69651 4.58464 4.95377C4.58464 4.21102 5.18744 3.60822 5.93019 3.60822ZM5.93019 2.53177C4.5954 2.53177 3.5082 3.61898 3.5082 4.95377C3.5082 6.28855 4.5954 7.37576 5.93019 7.37576C7.26497 7.37576 8.35218 6.28855 8.35218 4.95377C8.35218 3.61898 7.26497 2.53177 5.93019 2.53177Z" fill="#D04823"/>
</svg>
