<svg width="13" height="10" viewBox="0 0 13 10" fill="none" xmlns="http://www.w3.org/2000/svg">
<path d="M5.38227 6.06505C5.03841 5.78853 4.8291 5.41278 4.8291 4.99125C4.8291 4.14676 5.67351 3.46606 6.72124 3.46606C7.23973 3.46606 7.71695 3.63516 8.05483 3.91167" stroke="#D04823" stroke-width="1.07644" stroke-linecap="round" stroke-linejoin="round"/>
<path d="M8.57773 5.2616C8.43899 5.88304 7.8314 6.37345 7.06055 6.48618" stroke="#D04823" stroke-width="1.07644" stroke-linecap="round" stroke-linejoin="round"/>
<path d="M3.52473 7.56113C2.57567 6.96088 1.77193 6.08412 1.18945 4.99105C1.77791 3.89316 2.58703 3.01158 3.54207 2.40651C4.49113 1.80145 5.58611 1.4729 6.72116 1.4729C7.86279 1.4729 8.95717 1.80626 9.91221 2.41567" stroke="#D04823" stroke-width="1.07644" stroke-linecap="round" stroke-linejoin="round"/>
<path d="M11.1748 3.47522C11.5862 3.91553 11.948 4.42377 12.2524 4.99077C11.0761 7.18607 8.99741 8.50844 6.72074 8.50844C6.20464 8.50844 5.69573 8.441 5.20654 8.30948" stroke="#D04823" stroke-width="1.07644" stroke-linecap="round" stroke-linejoin="round"/>
<path d="M11.4381 1.19128L2.00488 8.79025" stroke="#D04823" stroke-width="1.07644" stroke-linecap="round" stroke-linejoin="round"/>
</svg>
